<?xml version="1.0" encoding="utf-8"?>
<!-- Generator: Adobe Illustrator 24.0.1, SVG Export Plug-In . SVG Version: 6.00 Build 0)  -->
<svg version="1.1" id="Layer_1" xmlns="http://www.w3.org/2000/svg" xmlns:xlink="http://www.w3.org/1999/xlink" x="0px" y="0px"
	 viewBox="0 0 140 140" style="enable-background:new 0 0 140 140;" xml:space="preserve">
<style type="text/css">
	.st0{fill:#97CE4C;}
	.st1{fill:#FFFFFF;}
</style>
<path class="st0" d="M140,70c0,23.7-11.7,44.6-29.7,57.2c-13,7.2-25.3,11.8-40.3,11.8c-17.5,0-32-7-45.8-16.1C9.4,110.1,0,91.2,0,70
	C0,31.3,31.3,0,70,0S140,31.3,140,70z"/>
<path class="st1" d="M108.1,120.1l-0.8-2.9c-0.9-3.5-1.7-5.5-2.9-7c-0.5-0.6-0.9-1.3-0.9-1.5c0-0.2,0.7-0.8,1.5-1.4
	c1.5-1.1,3.5-3.2,4.7-5c0.4-0.6,1-1,1.5-1.2c1.3-0.4,2.8-2,3.2-3.3c0.4-1.3,0.2-1.9-0.7-3.3l-0.7-1l0.6-2.7c0.6-2.6,0.6-2.7,0.1-6.8
	c-0.2-2.3-0.4-4.5-0.4-4.8c0-0.9-2-5.1-3.7-7.3c-2.7-3.9-3.7-4.8-7.7-6.7c-4.6-2.3-6.3-2.7-10.9-2.5c-4,0.2-7.5,0.9-10.6,2.4
	c-3.1,1.5-6.7,5.1-10.1,10.2c-1.2,1.7-1.3,1.9-1.3,3.6c0,1.3-0.3,2.5-1,4.7c-1.2,3.7-1.1,4.5,0.6,7.4c0.7,1.1,1.2,2.2,1.2,2.3
	c0,0.2-0.3,0.7-0.8,1.2c-1.4,1.5-1.4,3.9,0.1,5.5c0.8,0.9,2.8,1.7,3.4,1.4c0.1-0.1,0-0.8-0.3-1.5c-0.8-2.1-0.6-2.2,0.4-0.1
	c1.9,4.1,4.6,6.8,8.8,8.9c3.2,1.6,5.9,2.3,9.8,2.4c1.8,0.1,3,0.2,2.7,0.3c-1.6,0.6-8.9-0.5-12.3-1.8l-1.8-0.7l-0.5,0.6
	c-1,1.3-2.9,5.5-3.4,7.4c-0.3,1.1-0.6,3.3-0.8,4.9c-0.5,5-0.7,5.5-1.3,2.5c-0.9-4.9-7.2-28-8-29.4c-0.1-0.2-1.8-0.8-3.7-1.3
	c-1.9-0.5-4.1-1.1-4.7-1.4c-0.6-0.2-1.3-0.4-1.3-0.3c-0.1,0.1,0.4,0.9,1,1.7c0.6,0.9,1.5,2.2,2,2.9c1.3,2,4.2,8.3,5,10.8
	c0.9,2.7,0.9,2.8-1.9,5.2c-1.1,0.9-1.9,1.8-1.9,2.1c0,0.2,1.2,1.6,2.7,2.9c2.6,2.4,2.7,2.6,2.5,3.3l-0.2,0.8l-0.1-0.8
	c-0.1-0.6-0.7-1.4-2.8-3.4c-1.5-1.4-2.8-2.8-2.8-3c0-0.2,1-1.2,2.1-2.2c2.9-2.5,3-2.7,1.8-5.8c-2-5.2-6.4-13.2-8-14.7
	c-0.5-0.5-0.7-0.9-0.7-1.7c0-1.1,0.2-1.4,1.6-1.8c1.4-0.5,2.7-1.5,3.7-2.8c0.7-1,1.1-1.2,3.1-1.9c1.3-0.4,2.3-0.8,2.3-0.9
	c0-0.1-0.5-0.8-1.1-1.5c-1.1-1.4-1.4-2.4-0.6-2.6c0.2-0.1,1.2-0.2,2-0.3c0.9-0.1,1.7-0.2,1.8-0.3c0.1-0.1-0.2-1.1-0.6-2.3
	c-0.5-1.2-0.8-2.3-0.8-2.5c0-0.2,0.7-0.5,1.5-0.8c1.9-0.6,5.1-2.2,5.1-2.5c0-0.1-1-0.8-2.2-1.4c-2.3-1.2-4.7-3.1-4.3-3.4
	c0.1-0.1,1.1-0.5,2.1-0.8c2.6-0.9,5.3-2.1,7.4-3.5c1-0.6,1.8-1.2,1.7-1.2c-0.1-0.1-7.3-3.2-8-3.4c-0.3-0.1-0.4-0.3-0.3-0.5
	c0.1-0.2,1.9-1.9,3.9-3.8c2-1.9,3.6-3.5,3.6-3.6c0-0.2-1.6-0.5-6.5-1.2c-1.8-0.3-3.3-0.5-3.4-0.6c-0.1-0.1,1.1-2.5,2.7-5.2
	c2.6-4.5,3.1-5.5,2.9-5.5c-0.1,0-2.2,0.8-4.8,1.7c-3.8,1.4-4.8,1.7-5.1,1.4c-0.6-0.6-1.1-5-1.1-9v-3.8l-2.2,1.2
	c-2.5,1.4-5.9,4-7.5,5.9c-0.6,0.7-1.2,1.3-1.3,1.3c-0.1,0-1.1-1.2-2.3-2.8c-2-2.6-5.3-6.3-5.7-6.3c-0.1,0-0.3,1.2-0.5,2.6
	c-0.5,4-1.9,8.9-2.6,8.9c-0.2,0-1.5-0.5-2.8-1.2c-2.2-1-5.5-2-6.7-2c-0.3,0-0.2,0.5,0.6,2.1c1.2,2.4,2.2,6.1,2.1,7.4L32.7,44
	l-2.4,0.2c-7,0.5-10.2,0.9-10.2,1c0,0.1,1.2,1.4,2.6,2.8c2.7,2.7,4.7,5.7,4.5,6.7c-0.1,0.4-1.4,1.5-4.2,3.5c-2.3,1.6-4.2,3-4.2,3.1
	c-0.1,0.1,0.2,0.3,0.7,0.4c2.8,0.6,4.1,1,5.1,1.6c1.4,0.8,2.8,2.1,3.5,3.1l0.5,0.8l-3,3c-2.5,2.5-2.9,3-2.6,3.3
	c0.2,0.2,1.8,0.8,3.6,1.3c1.8,0.5,3.3,1.1,3.4,1.2c0.1,0.1-0.1,1.5-0.6,3.4c-0.5,1.7-0.7,3.3-0.7,3.4c0.1,0.2,4.5,0,5.2-0.2
	c0.7-0.2,0.9,0.4,1.1,2.5c0.1,1.2,0.3,2.3,0.4,2.3c0.2,0.1,3.2-1.2,3.2-1.4c0-0.1-0.3-0.6-0.8-1.3c-1.8-2.6-3-5.9-4-10.8
	c-0.6-3.1-0.9-6-0.6-6c0.1,0,0.3,0.9,0.4,1.9c0.5,6,3.3,13.6,5.8,16.1c0.6,0.6,2,1.6,3.4,2.2l2.2,1l-0.1,1l-0.1,1l-5.9,2l-5.9,2
	l-0.5,1.6c-0.3,0.9-1.5,5.1-2.7,9.3c-1.6,5.7-2.4,8.2-2.6,8.2l-2.7,9.1c2,1.7,4.1,3.2,6.2,4.7c13.4,9,30.3,13.3,45.6,11.7
	c12.8-1.4,23.8-5.4,33.3-12.1L108.1,120.1z M42.6,95.9c-1.9,4-5.3,13.6-5,14.1c0.1,0.2,1.3,1.3,2.6,2.5c1.3,1.1,2.4,2.2,2.4,2.4
	c0.1,0.2-0.3,0.8-0.9,1.3c-0.6,0.6-0.8,0.8-0.5,0.3c1-1.6,1.1-1.4-1.6-3.9c-1.8-1.7-2.5-2.5-2.5-3c0-1.4,5.3-14.8,5.8-14.8
	C43.1,94.7,42.9,95.3,42.6,95.9z"/>
</svg>
